<?xml version="1.0" encoding="utf-8"?>
<!-- Generator: Adobe Illustrator 16.0.0, SVG Export Plug-In . SVG Version: 6.00 Build 0)  -->
<!DOCTYPE svg PUBLIC "-//W3C//DTD SVG 1.1//EN" "http://www.w3.org/Graphics/SVG/1.1/DTD/svg11.dtd">
<svg version="1.1" id="Layer_1" xmlns="http://www.w3.org/2000/svg" xmlns:xlink="http://www.w3.org/1999/xlink" x="0px" y="0px"
	 width="24px" height="24px" viewBox="0 0 24 24" enable-background="new 0 0 24 24" xml:space="preserve">
<path d="M21.913,16.998c-0.27-0.73-0.625-1.359-1.012-1.893c0.424-1.006-0.418-2.031-0.418-2.031
	c0.685,0.047,1.083,0.827,1.083,0.827c0.171-1.063-1.282-1.466-1.282-1.466c0.313-0.449,0.998-0.26,0.998-0.26
	c-0.456-0.615-1.795-0.284-1.795-0.284c0.684-0.733-0.256-1.224-0.256-1.224c0.321,0.585-0.342,0.62-0.342,0.62
	C17.9,11.598,17.6,9.59,17.509,8.425c-0.019-0.848-0.062-1.542-0.119-2.113c0.003,0,0.006-0.001,0.006-0.001
	c-0.023-0.239-0.054-0.475-0.092-0.706c-0.102-0.694-0.225-1.137-0.336-1.418c-0.801-2.511-2.568-4.247-5.076-4.186
	c-5.027,0.124-5.54,5.39-5.589,6.208C6.24,6.741,6.188,7.381,6.157,8.153c-0.226,1.561-0.684,3.272-1.604,3.135
	c0,0-0.662-0.035-0.342-0.62c0,0-0.94,0.49-0.256,1.224c0,0-1.339-0.331-1.796,0.284c0,0,0.685-0.189,0.998,0.26
	c0,0-1.453,0.402-1.282,1.466c0,0,0.399-0.78,1.083-0.827c0,0-1.1,1.341-0.149,2.46c-0.273,0.433-0.521,0.92-0.721,1.464
	c-0.229,0.622-0.395,1.319-0.462,2.096c0.977,1.188,2.153,2.204,3.479,2.999c0.247,0.148,0.5,0.287,0.757,0.419
	c0.658,0.414,1.496,0.743,2.466,0.975C9.494,23.818,10.726,24,12,24c1.444,0,2.835-0.231,4.139-0.653
	c0.753-0.21,1.45-0.49,2.027-0.849c0.248-0.128,0.492-0.262,0.73-0.405c1.325-0.795,2.502-1.812,3.479-2.999
	C22.307,18.317,22.142,17.62,21.913,16.998z M9.582,7.581c1.896-0.797,3.176-1.749,4.039-2.63c0.398,0.676,1.005,1.04,1.618,1.229
	c-0.181,2.728-1.437,5.432-3.377,5.432c-1.485,0-2.57-1.585-3.079-3.552C9.192,7.744,9.582,7.581,9.582,7.581z M9.346,12.506
	c0,0,0.182-0.196,0.342-0.617c0.614,0.565,1.354,0.905,2.215,0.905c0.861,0,1.611-0.359,2.237-0.956
	c0.157,0.395,0.328,0.578,0.328,0.578l0.637,0.107c-0.791,0.966-1.95,1.528-3.196,1.528c-1.25,0-2.406-0.538-3.198-1.463
	L9.346,12.506z M11.909,14.696c1.494,0,2.878-0.699,3.791-1.889l0.028,0.011l-1.259,4.153H9.41l-1.208-3.985
	C9.117,14.066,10.458,14.696,11.909,14.696z M14.298,17.536l-0.24,0.792H9.821l-0.24-0.792H14.298z M9.459,22.111l-2.805-9.192
	l0.462-0.142l2.879,9.438C9.815,22.186,9.637,22.15,9.459,22.111z M12.869,22.252H11.01l-0.208-0.688h2.276L12.869,22.252z
	 M13.249,20.999h-2.618l-0.236-0.778h3.089L13.249,20.999z M13.656,19.656h-3.432l-0.231-0.764h3.895L13.656,19.656z M14.516,22.117
	c-0.178,0.039-0.357,0.073-0.538,0.104l2.905-9.443l0.462,0.142L14.516,22.117z"/>
</svg>
